<svg xmlns="http://www.w3.org/2000/svg" viewBox="0 0 512 512">
  <defs>
    <radialGradient id="grad1" cx="256" cy="216" r="160" gradientUnits="userSpaceOnUse">
      <stop offset="0%" stop-color="#D5E0FF" stop-opacity="0.25"/>
      <stop offset="100%" stop-color="#050B14" stop-opacity="0"/>
    </radialGradient>
    <radialGradient id="grad2" cx="256" cy="216" r="12" gradientUnits="userSpaceOnUse">
      <stop offset="0%" stop-color="#0088FF"/>
      <stop offset="100%" stop-color="#D5E0FF"/>
    </radialGradient>
  </defs>
  <circle cx="256" cy="216" r="160" fill="url(#grad1)" stroke-opacity="0.1"/>
  <path d="M 256,64 L 384,128 L 416,288 L 256,448 L 96,288 L 128,128 Z" stroke="#0088FF" stroke-width="20" stroke-opacity="0.9" fill="none"/>
  <circle cx="256" cy="216" r="12" fill="url(#grad2)" fill-opacity="0.9"/>
  <path d="M 256,448 L 256,216" stroke="#D5E0FF" stroke-width="6" stroke-linecap="round" fill="none"/>
  <path d="M 256,216 M 256,216 L 256,64 L 384,128 Z" fill="#0088FF" fill-opacity="0.3"/>
  <path d="M 256,216 M 256,216 L 384,128 L 416,288 Z" fill="#0088FF" fill-opacity="0.15"/>
  <path d="M 256,216 M 256,216 L 416,288 L 256,448 Z" fill="#0088FF" fill-opacity="0.05"/>
  <path d="M 256,216 M 256,216 L 96,288 L 128,128 Z" fill="#0088FF" fill-opacity="0.15"/>
  <path d="M 256,216 M 256,216 L 128,128 L 256,64 Z" fill="#0088FF" fill-opacity="0.3"/>
  <path d="M 256,216 M 256,216 L 256,448 L 96,288 Z" fill="#0088FF" fill-opacity="0.05"/>
  <path d="M 256,216 L 128,128 M 256,216 L 384,128 M 256,216 L 96,288 M 256,216 L 416,288 M 256,216 L 256,64" stroke="#D5E0FF" stroke-width="3" stroke-linecap="round" fill="none"/>
  <path d="M 128,128 L 256,216 L 384,128" stroke="#D5E0FF" stroke-width="4" stroke-linecap="round" fill="none"/>
</svg>
